<svg xmlns="http://www.w3.org/2000/svg" xmlns:xlink="http://www.w3.org/1999/xlink" x="0px" y="0px" viewBox="0 0 287.01 198.74" style="enable-background:new 0 0 287.01 198.74;" xml:space="preserve"><style type="text/css">	.kasefet0{fill:none;}	.kasefet1{fill:#FFFFFF;}	.kasefet2{fill:#12100B;}	.kasefet3{fill-rule:evenodd;clip-rule:evenodd;fill:#12100B;}	.kasefet4{fill:#F5BCD7;}	.kasefet5{fill:#EEC95C;}	.kasefet6{fill:#A9CE7C;}</style><g>	<g>		<g>			<polygon class="kasefet0" points="237.26,23.33 237.26,23.33 237.26,23.33    "></polygon>			<path class="kasefet1" d="M236.52,24.94C213.23,14.17,182.56,6.68,146.6,6.29l-4.31-0.05C106.34,5.86,75.51,12.69,52,22.96    C26.4,34.16,7.23,58.97,6.82,94.66l-0.05,4.8c-0.36,35.69,18.27,60.9,43.63,72.65c23.28,10.77,53.95,18.26,89.91,18.64l4.31,0.04    l0,0h0.01h0c35.95,0.39,66.78-6.44,90.28-16.71c25.61-11.21,44.77-36.01,45.18-71.71l0.05-4.79    C280.5,61.9,261.87,36.69,236.52,24.94l0.75-1.61l0,0L236.52,24.94z"></path>			<path class="kasefet2" d="M239.9,20.18C215.63,8.96,183.87,1.22,146.7,0.82l-4.39-0.05c-37.17-0.4-69.09,6.66-93.59,17.35    C21.39,30.02,0.84,56.8,0.46,94.55l-0.05,4.88c-0.43,37.74,19.53,64.96,46.61,77.44c24.26,11.22,56.04,18.95,93.19,19.35    l4.41,0.05v0h0.25l0,0c37.04,0.36,68.89-6.67,93.33-17.35c27.34-11.9,47.89-38.69,48.27-76.43l0.05-4.88    C286.94,59.87,266.97,32.66,239.9,20.18z M237.26,23.33l-0.75,1.61c25.35,11.75,43.99,36.96,43.63,72.66l-0.05,4.79    c-0.41,35.69-19.58,60.5-45.18,71.71c-23.5,10.26-54.33,17.1-90.28,16.71h0h-0.01l0,0l-4.31-0.04    c-35.96-0.38-66.63-7.88-89.91-18.64C25.04,160.36,6.42,135.15,6.77,99.46l0.05-4.8C7.23,58.97,26.4,34.16,52,22.96    C75.51,12.69,106.34,5.86,142.3,6.25l4.31,0.05c35.96,0.39,66.62,7.88,89.91,18.65L237.26,23.33L237.26,23.33L237.26,23.33z"></path>		</g>		<path class="kasefet3" d="M16.4,94.77c0.34-31.82,17.29-53.37,39.44-63.04c21.78-9.5,51.1-16.29,86.36-15.91l4.31,0.05   c35.26,0.38,64.42,7.79,85.99,17.76c21.94,10.15,38.42,32.04,38.08,63.87l-0.06,4.79c-0.34,31.82-17.28,53.37-39.44,63.03   c-21.78,9.51-51.1,16.29-86.35,15.91l-4.31-0.05c-35.26-0.38-64.42-7.79-86-17.76C32.48,153.28,16,131.38,16.35,99.56L16.4,94.77z   "></path>		<g>			<path class="kasefet1" d="M100.24,85.58c1.84-9.34-4.76-17.43-20.42-17.59C69.3,67.87,64.19,69.13,61,70.03    c-0.03,0.01-0.07,0.03-0.1,0.05c-0.67,0.23-1.18,0.8-1.32,1.51c0,0.02-0.01,0.03-0.01,0.03l-5.16,26.53    c-0.59,2.88-1.11,5.92-3.3,6.23c-3.35-0.13-6.69-1.95-6.69-1.95s-0.3,1.85-0.12,3.08c0.42,1.91,1.77,8.03,12.88,8.55    c5.1,0.06,9.82-2.71,11.53-11.08l5.18-25.3c6.75-1.01,12.05,2.3,10.78,8.5l-4.76,24.62l0,0v0.01l0,0c0,1.09,0.87,1.99,1.98,2.01    v-0.01l11.38,0.13l0,0c0.02,0,0.02,0,0.03,0h0.07c0,0,0.01-0.01,0.02-0.01c0.81-0.03,1.5-0.56,1.78-1.28    c0.01-0.04,0.03-0.07,0.03-0.1c0-0.02,0-0.02,0-0.04c0.04-0.13,0.07-0.27,0.08-0.41C96.84,102.79,98.64,93.77,100.24,85.58z"></path>			<path class="kasefet1" d="M222.63,69.7c-11.25-0.12-16.89,1.95-19.09,3.05c-0.03,0.02-0.06,0.04-0.1,0.06    c-0.62,0.25-1.09,0.81-1.21,1.5c-0.01,0.01-0.01,0.02-0.01,0.02l-0.92,4.66c-0.01,1.03,0.75,1.86,1.74,2    C203.1,81,203.14,81,203.19,81c0.03,0,0.06,0.01,0.09,0.01V81c0,0,0.01,0,0.02-0.01c2.75-0.68,7.48-1.73,13.02-1.67    c7.19,0.08,12.29,1.11,10.56,9.69l-1.73,8.8c-0.68,3.36-2.15,7.81-5.85,7.76c-2.5-0.03-4.24-0.26-5.65-1.14l2.72-13.62    l-0.03-0.02c-0.01-1.06-0.84-1.93-1.91-1.97l-0.01,0l-9.56-0.1h-0.02l0-0.02c-1.1-0.01-2,0.87-2.02,1.98l0.02,0L196.84,121    c-1.33,6.49,1.76,10.36,8.61,10.43l0.24,0c7.24,0.08,10.32-2.23,11.62-4.27c0.78-1.29,0.97-3,0.97-3l-4.97-0.05    c-1.31-0.02-3.36-1.12-2.8-3.29c0.24-1.19,1.88-8.98,1.88-8.98c2.59,1.77,6.61,3.01,12.15,3.07c5.23,0.06,12.76-1.7,15.05-12.35    l2.76-14.14C244.53,77.99,237.98,69.86,222.63,69.7z"></path>			<path class="kasefet1" d="M191.18,69.21c-8.33-3.27-11.33,0.8-12.26,2.05c-0.54,0.85-0.93,2.3-0.93,2.3s2.78-0.29,5.29,0.71    c1.22,0.68,1.21,2.99,0.77,5.11c-0.18,0.78-0.82,4.19-0.82,4.19c-0.71,2.68-1.25,3.57-2.59,4.08l-7.83-13.38    c-1.88-3.28-5.22-5.23-8.92-5.27l-6.59-0.08v0c-0.95,0.01-1.74,0.68-1.94,1.58l-1.17,6.15c-0.01,1.09,0.87,2,1.97,2.01l0.01,0.01    c0.05-0.01,3.6,0,4.31,0.04c0.45,0.04,1.28,0.25,1.82,1.06l13.92,23.79l-22.64-0.27l-0.01,0c-1.09,0-1.81,0.83-2,1.95l-0.01,0    l-1.34,6.38l-0.02,0c-0.01,0.98,0.7,1.81,1.64,1.98c0.09,0.02,0.22,0.04,0.37,0.04l36.38,0.39l0.13-0.13    c0.96-0.07,1.71-0.81,1.83-1.75l0.01-0.01l0.98-5.45c0,0,0.24-1.27-0.42-1.93c-2.12-3.35-5.91-9.71-5.91-9.71l3.27,0.03    c1.45-0.09,4.75-0.89,5.93-6.3c1.53-7,1.89-8.88,1.89-8.88c0-0.02-0.01-0.05,0-0.08C197.38,73.48,194.72,70.75,191.18,69.21z"></path>			<path class="kasefet1" d="M134.25,68.59l-12.18-0.13c-6.96-0.08-14.39,1.99-16.12,10.89l-1.15,5.75c-1.14,5.54,2.94,10.38,9.79,10.45    l1.35,0.02c7.25,0.08,10.33-2.23,11.63-4.27c0.78-1.29,0.96-3,0.96-3l-5.59-0.06c-1.31-0.02-3.36-1.12-2.8-3.29    c0.25-0.99,0.37-1.46,0.53-2.17c0.69-2.39,1.93-4.51,5.95-4.47l3.04,0.03c2.29,0.03,4.79,0.7,4.74,5.17    c-0.01,0.97-0.24,2.17-0.48,3.37c-0.68,3.58-1.35,6.25-2.04,9.73c-0.91,4.56-2.34,6.39-8,6.33l-15.76-0.17l0,0    c-1.1-0.01-2,0.88-2.02,1.98l-1.36,6.32c-0.01,1.06,0.81,1.93,1.86,2c0.04,0.02,0.07,0.03,0.1,0.04c0,0,25.47,0.24,25.77,0.26    c4.04,0.16,12.11-3.54,14.18-13.32l2.75-13.36C151.36,77.43,146.22,68.71,134.25,68.59z"></path>		</g>		<path class="kasefet4" d="M138.53,137.73c-0.05,4.18-3.47,7.52-7.65,7.48c-4.17-0.04-7.52-3.46-7.47-7.64   c0.04-4.17,3.46-7.51,7.63-7.47C135.22,130.15,138.57,133.57,138.53,137.73z"></path>		<path class="kasefet5" d="M162.67,138c-0.05,4.18-3.46,7.52-7.64,7.48c-4.17-0.04-7.53-3.46-7.48-7.64c0.05-4.17,3.47-7.52,7.64-7.48   C159.37,130.4,162.72,133.83,162.67,138z"></path>		<path class="kasefet6" d="M150.4,155.75c-0.04,4.17-3.46,7.52-7.63,7.48c-4.17-0.05-7.53-3.46-7.49-7.63c0.05-4.19,3.47-7.54,7.65-7.5   C147.1,148.15,150.45,151.58,150.4,155.75z"></path>	</g></g></svg>